<svg xmlns="http://www.w3.org/2000/svg" width="55.801" height="12.726" viewBox="0 0 55.801 12.726">
  <g id="Group_7380" data-name="Group 7380" transform="translate(-296.833 -4679)">
    <path id="Path_27753" data-name="Path 27753" d="M51.15,0,46.5,4.464,41.85,0,37.2,4.464,32.55,0,27.9,4.464,23.25,0,18.6,4.464,13.95,0,9.3,4.464,4.65,0,0,4.464v2.4L4.65,2.4,9.3,6.862h0L13.95,2.4,18.6,6.863h0L23.25,2.4,27.9,6.863h0L32.55,2.4,37.2,6.863h0L41.85,2.4,46.5,6.863h0L51.15,2.4,55.8,6.863v-2.4Z" transform="translate(296.833 4679)" fill="#fff"/>
    <path id="Path_27754" data-name="Path 27754" d="M51.15,0,46.5,4.464,41.85,0,37.2,4.464,32.55,0,27.9,4.464,23.25,0,18.6,4.464,13.95,0,9.3,4.464,4.65,0,0,4.464v2.4L4.65,2.4,9.3,6.862h0L13.95,2.4,18.6,6.863h0L23.25,2.4,27.9,6.863h0L32.55,2.4,37.2,6.863h0L41.85,2.4,46.5,6.863h0L51.15,2.4,55.8,6.863v-2.4Z" transform="translate(296.833 4684.863)" fill="#fff"/>
  </g>
</svg>
