<svg id="Group_7414" data-name="Group 7414" xmlns="http://www.w3.org/2000/svg" xmlns:xlink="http://www.w3.org/1999/xlink" width="25.589" height="26.525" viewBox="0 0 25.589 26.525">
  <defs>
    <clipPath id="clip-path">
      <rect id="Rectangle_1996" data-name="Rectangle 1996" width="25.589" height="26.525" fill="#fff"/>
    </clipPath>
  </defs>
  <g id="Group_7415" data-name="Group 7415" clip-path="url(#clip-path)">
    <path id="Path_27762" data-name="Path 27762" d="M130.261,87.068a.528.528,0,0,0-.7-.26l-1.653.754-2.6-5.7a3.3,3.3,0,0,0,1.284-1.814,5.119,5.119,0,0,0-.632-4.092c-.776-1.253-2.874-4.516-2.895-4.551a.531.531,0,0,0-.663-.193l-4.235,1.937a.529.529,0,0,0-.288.628c.011.039,1.105,3.758,1.548,5.165a4.692,4.692,0,0,0,4.12,3.474,2.944,2.944,0,0,0,.807-.109l2.6,5.688-1.653.758a.522.522,0,0,0-.26.7.53.53,0,0,0,.7.26L130,87.766a.525.525,0,0,0,.26-.7M119.018,73.923l3.407-1.558c.579.9,2.025,3.162,2.635,4.148a4.9,4.9,0,0,1,.305.586h-5.32c-.028,0-.828-2.5-1.028-3.176m5.344,7.271a2.179,2.179,0,0,1-.818.175,3.628,3.628,0,0,1-3.116-2.737c-.042-.14-.095-.3-.147-.481h5.393a3.578,3.578,0,0,1-.091,1.6,2.173,2.173,0,0,1-1.221,1.446" transform="translate(-104.72 -63.237)" fill="#fff"/>
    <path id="Path_27763" data-name="Path 27763" d="M11.851,63.09,7.577,61.23a.522.522,0,0,0-.656.207c-.021.032-2.056,3.334-2.811,4.6a5.128,5.128,0,0,0-.554,4.106A3.321,3.321,0,0,0,4.9,71.951L2.4,77.691.735,76.965a.521.521,0,0,0-.691.27.529.529,0,0,0,.274.695l4.3,1.87a.526.526,0,1,0,.421-.965l-1.67-.726,2.5-5.744a2.935,2.935,0,0,0,.723.088A4.648,4.648,0,0,0,10.7,68.9c.418-1.411,1.442-5.151,1.453-5.19a.525.525,0,0,0-.3-.621M9.69,68.606a3.65,3.65,0,0,1-3.1,2.793,1.918,1.918,0,0,1-.783-.161A2.744,2.744,0,0,1,4.56,69.817a3.578,3.578,0,0,1,.049-2.33c.06.025,5.386.039,5.386.039-.116.421-.225.8-.305,1.081m.589-2.084c-.067-.032-5.2-.049-5.2-.049.621-1.046,1.955-3.211,2.5-4.1l3.435,1.495c-.158.575-.449,1.632-.733,2.649" transform="translate(0 -54.366)" fill="#fff"/>
    <path id="Path_27764" data-name="Path 27764" d="M108.852,4.913a.554.554,0,0,1-.557-.526V.526a.558.558,0,0,1,1.115,0v3.86a.554.554,0,0,1-.557.526" transform="translate(-96.225)" fill="#fff"/>
    <path id="Path_27765" data-name="Path 27765" d="M127.142,30.236a.526.526,0,0,1,.043-.743l3.061-2.726a.526.526,0,0,1,.7.786l-3.061,2.726a.526.526,0,0,1-.743-.043" transform="translate(-112.853 -23.665)" fill="#fff"/>
    <path id="Path_27766" data-name="Path 27766" d="M68.744,30.28l-3.061-2.726a.526.526,0,0,1,.7-.786l3.061,2.726a.526.526,0,0,1-.7.786" transform="translate(-58.205 -23.666)" fill="#fff"/>
  </g>
</svg>
